<svg xmlns="http://www.w3.org/2000/svg" width="63" height="63" viewBox="0 0 63 63">
  <g id="Speed" transform="translate(-785 -1431)">
    <rect id="Rectangle_21" data-name="Rectangle 21" width="63" height="63" transform="translate(785 1431)" fill="#b98d58"/>
    <path id="_6e74f5c3dc295d3d068750f075cd8b4b" data-name="6e74f5c3dc295d3d068750f075cd8b4b" d="M14.659,2A12.659,12.659,0,1,0,27.317,14.659,12.7,12.7,0,0,0,14.659,2ZM17.19,19.342a1.281,1.281,0,0,1-1.772-.506l-1.9-3.544a1.141,1.141,0,0,1-.127-.633V8.329a1.266,1.266,0,0,1,2.532,0v5.949L17.7,17.57A1.4,1.4,0,0,1,17.19,19.342Z" transform="translate(802 1448)" fill="#fff"/>
  </g>
</svg>
