<svg xmlns="http://www.w3.org/2000/svg" width="63" height="63" viewBox="0 0 63 63">
  <g id="Covenience" transform="translate(-1493 -1135)">
    <rect id="Rectangle_21" data-name="Rectangle 21" width="63" height="63" transform="translate(1493 1135)" fill="#b98d58"/>
    <path id="Path_62" data-name="Path 62" d="M15.213,23.781H11.3a1.3,1.3,0,0,0-1.3,1.3V33a1.3,1.3,0,0,0,1.3,1.3h3.91a1.3,1.3,0,0,0,1.3-1.3V25.084A1.3,1.3,0,0,0,15.213,23.781Zm8.833-3.041h-3.91a1.3,1.3,0,0,0-1.3,1.3V33a1.3,1.3,0,0,0,1.3,1.3h3.91a1.3,1.3,0,0,0,1.3-1.3V22.043A1.363,1.363,0,0,0,24.046,20.74Zm8.785-7.24h-3.91a1.3,1.3,0,0,0-1.3,1.3V33a1.3,1.3,0,0,0,1.3,1.3h3.91a1.3,1.3,0,0,0,1.3-1.3V14.755A1.288,1.288,0,0,0,32.831,13.5Z" transform="translate(1502 1142.5)" fill="#fff"/>
  </g>
</svg>
